<svg width="163" height="70" viewBox="0 0 163 70" fill="none" xmlns="http://www.w3.org/2000/svg">
<rect width="163" height="70" fill="white"/>
<path d="M40.3638 44V28.3085H43.6814V41.2647H50.4085V44H40.3638ZM73.0315 33.802H69.6756C69.6143 33.3679 69.4892 32.9822 69.3002 32.6451C69.1112 32.3029 68.8686 32.0117 68.5723 31.7716C68.276 31.5316 67.9338 31.3477 67.5456 31.22C67.1625 31.0923 66.7462 31.0284 66.2967 31.0284C65.4846 31.0284 64.7771 31.2302 64.1744 31.6337C63.5716 32.0321 63.1043 32.6144 62.7723 33.3806C62.4402 34.1417 62.2742 35.0663 62.2742 36.1542C62.2742 37.2729 62.4402 38.2127 62.7723 38.9738C63.1094 39.7349 63.5793 40.3095 64.182 40.6977C64.7848 41.0859 65.482 41.28 66.2737 41.28C66.7181 41.28 67.1293 41.2213 67.5073 41.1038C67.8904 40.9863 68.2301 40.8152 68.5263 40.5905C68.8226 40.3606 69.0678 40.0822 69.2619 39.7553C69.4611 39.4284 69.599 39.0555 69.6756 38.6367L73.0315 38.652C72.9447 39.3722 72.7276 40.0669 72.3802 40.736C72.038 41.4001 71.5758 41.9951 70.9934 42.5213C70.4163 43.0423 69.7267 43.456 68.9247 43.7625C68.1279 44.0638 67.2264 44.2145 66.2201 44.2145C64.8205 44.2145 63.5691 43.8978 62.4658 43.2645C61.3676 42.6311 60.4992 41.7142 59.8607 40.5138C59.2274 39.3135 58.9107 37.8603 58.9107 36.1542C58.9107 34.4431 59.2325 32.9873 59.8761 31.787C60.5197 30.5866 61.3931 29.6723 62.4964 29.044C63.5997 28.4106 64.841 28.0939 66.2201 28.0939C67.1293 28.0939 67.9721 28.2216 68.7485 28.477C69.53 28.7324 70.2222 29.1053 70.8249 29.5957C71.4276 30.0809 71.918 30.676 72.296 31.3809C72.6791 32.0858 72.9242 32.8928 73.0315 33.802ZM82.6025 28.3085H86.6939L91.0152 38.8512H91.1991L95.5204 28.3085H99.6118V44H96.3939V33.7867H96.2636L92.2028 43.9234H90.0115L85.9507 33.7484H85.8205V44H82.6025V28.3085ZM118.05 32.8213C117.988 32.2033 117.725 31.7231 117.26 31.3809C116.796 31.0387 116.165 30.8675 115.368 30.8675C114.826 30.8675 114.369 30.9442 113.996 31.0974C113.623 31.2455 113.337 31.4524 113.138 31.718C112.944 31.9836 112.847 32.285 112.847 32.6221C112.837 32.903 112.896 33.1482 113.023 33.3577C113.156 33.5671 113.337 33.7484 113.567 33.9016C113.797 34.0498 114.063 34.18 114.364 34.2924C114.666 34.3997 114.987 34.4916 115.33 34.5682L116.739 34.9054C117.424 35.0586 118.052 35.2629 118.624 35.5183C119.196 35.7737 119.692 36.0878 120.111 36.4607C120.529 36.8336 120.854 37.2729 121.084 37.7786C121.319 38.2842 121.439 38.864 121.444 39.5178C121.439 40.4781 121.193 41.3107 120.708 42.0156C120.228 42.7154 119.533 43.2594 118.624 43.6476C117.72 44.0306 116.63 44.2222 115.353 44.2222C114.086 44.2222 112.982 44.0281 112.043 43.6399C111.108 43.2517 110.377 42.677 109.851 41.916C109.33 41.1498 109.057 40.2023 109.031 39.0734H112.242C112.278 39.5995 112.428 40.0388 112.694 40.3913C112.965 40.7386 113.325 41.0017 113.774 41.1804C114.229 41.3541 114.742 41.4409 115.314 41.4409C115.876 41.4409 116.364 41.3592 116.778 41.1958C117.196 41.0323 117.521 40.805 117.751 40.5138C117.981 40.2227 118.095 39.8881 118.095 39.5101C118.095 39.1577 117.991 38.8614 117.781 38.6214C117.577 38.3813 117.276 38.177 116.877 38.0084C116.484 37.8399 116.001 37.6866 115.429 37.5487L113.721 37.1196C112.398 36.7978 111.353 36.2947 110.587 35.6102C109.821 34.9258 109.44 34.0038 109.445 32.8443C109.44 31.8942 109.693 31.0642 110.204 30.3542C110.72 29.6442 111.427 29.09 112.326 28.6916C113.225 28.2932 114.247 28.0939 115.391 28.0939C116.555 28.0939 117.572 28.2932 118.44 28.6916C119.314 29.09 119.993 29.6442 120.478 30.3542C120.964 31.0642 121.214 31.8866 121.229 32.8213H118.05Z" fill="#20204F"/>
</svg>
