<svg width="24" height="24" viewBox="0 0 24 24" fill="none" xmlns="http://www.w3.org/2000/svg">
<path d="M22.3937 6L21.7236 6.3871C22.8476 8.33369 23.3605 10.5734 23.1958 12.8153C23.031 15.0572 22.1959 17.1977 20.7991 18.9589C20.596 18.8395 20.3648 18.7759 20.129 18.7747C19.7697 18.7747 19.4252 18.9175 19.171 19.1715C18.9169 19.4257 18.7742 19.7703 18.7742 20.1296C18.7742 20.4889 18.9169 20.8334 19.171 21.0876C19.4252 21.3417 19.7697 21.4844 20.129 21.4844C20.4883 21.4844 20.8329 21.3417 21.0871 21.0876C21.3411 20.8334 21.4839 20.4889 21.4839 20.1296C21.4825 19.9219 21.4327 19.7172 21.3387 19.5318C22.8602 17.6466 23.7754 15.3448 23.9636 12.9298C24.152 10.5145 23.6045 8.09871 22.3936 6.00038L22.3937 6Z" fill="#A6A5B8"/>
<path d="M11.9998 23.2261C9.4733 23.223 7.02189 22.3681 5.04124 20.7993C5.16048 20.5961 5.2239 20.365 5.22546 20.1293C5.22546 19.77 5.08272 19.4254 4.82868 19.1712C4.57447 18.9172 4.22988 18.7744 3.8706 18.7744C3.51133 18.7744 3.16674 18.9172 2.91253 19.1712C2.65849 19.4254 2.51575 19.77 2.51575 20.1293C2.51575 20.4885 2.65849 20.8331 2.91253 21.0873C3.16674 21.3414 3.51133 21.4841 3.8706 21.4841C4.07833 21.4827 4.28294 21.433 4.46838 21.339C6.3536 22.8604 8.65535 23.7756 11.0704 23.9638C13.4857 24.1522 15.9015 23.6047 17.9998 22.3938L17.6127 21.7238C15.9062 22.7089 13.9701 23.2271 11.9994 23.2261L11.9998 23.2261Z" fill="#A6A5B8"/>
<path d="M3.20087 5.04126C3.40392 5.16068 3.63515 5.22444 3.87089 5.22583C4.23017 5.22583 4.57476 5.08308 4.82897 4.82904C5.083 4.57483 5.22575 4.23025 5.22575 3.87097C5.22575 3.51169 5.083 3.1671 4.82897 2.9129C4.57475 2.65886 4.23017 2.51611 3.87089 2.51611C3.51162 2.51611 3.16703 2.65886 2.91282 2.9129C2.65878 3.16711 2.51604 3.51169 2.51604 3.87097C2.51742 4.07869 2.56719 4.28331 2.6612 4.46875C1.13972 6.35397 0.224517 8.65572 0.0363182 11.0708C-0.152049 13.486 0.395427 15.9018 1.60633 18.0002L2.27635 17.6131C1.1522 15.6665 0.639272 13.4268 0.804157 11.1849C0.969024 8.94297 1.80408 6.80235 3.20093 5.04122L3.20087 5.04126Z" fill="#A6A5B8"/>
<path d="M21.484 3.87089C21.484 3.51161 21.3413 3.16703 21.0873 2.91282C20.833 2.65878 20.4885 2.51604 20.1292 2.51604C19.9215 2.51742 19.7169 2.56719 19.5314 2.6612C17.6462 1.13972 15.3444 0.224517 12.9294 0.0363182C10.5141 -0.152049 8.09833 0.395428 6 1.60633L6.3871 2.27635C8.33369 1.1522 10.5734 0.639273 12.8153 0.804157C15.0572 0.969024 17.1977 1.80408 18.9589 3.20093C18.8397 3.40417 18.7763 3.63522 18.7747 3.87096C18.7747 4.35499 19.0329 4.80226 19.4521 5.04435C19.8714 5.28629 20.3877 5.28629 20.807 5.04435C21.2262 4.80223 21.4844 4.35499 21.4844 3.87096L21.484 3.87089Z" fill="#A6A5B8"/>
<path d="M15.0966 17.0327V7.35506H15.4838V5.80664H8.51587V7.35506H8.90297V17.0327H10.8385V14.3229H13.1611V17.0327H15.0966ZM12.774 8.90348H13.9353V10.0648H12.774V8.90348ZM11.2256 12.7745H10.0643V11.6132H11.2256V12.7745ZM11.2256 10.0648H10.0643V8.90348H11.2256V10.0648ZM12.774 12.7745V11.6132H13.9353V12.7745H12.774Z" fill="#A6A5B8"/>
<path d="M15.8708 16.6451H19.7419V11.2257H20.129V9.67725H15.8708V16.6451Z" fill="#A6A5B8"/>
<path d="M8.12888 16.6451V9.67725H3.87073V11.2257H4.25783V16.6451H8.12888Z" fill="#A6A5B8"/>
</svg>
