<svg width="24" height="24" viewBox="0 0 24 24" fill="none" xmlns="http://www.w3.org/2000/svg">
<path d="M14.9204 18.5C14.2401 18.5 13.6667 18.2651 13.2 17.7954C12.7333 17.3257 12.5 16.7507 12.5 16.0704C12.5 15.3901 12.7349 14.8167 13.2046 14.35C13.6743 13.8833 14.2493 13.65 14.9296 13.65C15.6099 13.65 16.1833 13.8849 16.65 14.3546C17.1167 14.8243 17.35 15.3993 17.35 16.0796C17.35 16.7599 17.1151 17.3333 16.6454 17.8C16.1757 18.2667 15.6007 18.5 14.9204 18.5ZM4.5 22C4.1 22 3.75 21.85 3.45 21.55C3.15 21.25 3 20.9 3 20.5V5C3 4.6 3.15 4.25 3.45 3.95C3.75 3.65 4.1 3.5 4.5 3.5H6.125V2H7.75V3.5H16.25V2H17.875V3.5H19.5C19.9 3.5 20.25 3.65 20.55 3.95C20.85 4.25 21 4.6 21 5V20.5C21 20.9 20.85 21.25 20.55 21.55C20.25 21.85 19.9 22 19.5 22H4.5ZM4.5 20.5H19.5V9.75H4.5V20.5ZM4.5 8.25H19.5V5H4.5V8.25Z" fill="#A6A5B8"/>
</svg>
